<svg width="40" height="43" viewBox="0 0 40 43" fill="none" xmlns="http://www.w3.org/2000/svg">
<path d="M8.51099 4.66449C6.26817 4.66449 4.60911 6.77552 4.68317 9.06493C4.75442 11.264 4.66192 14.1127 3.99474 16.4354C3.32599 18.7655 2.19474 20.2379 0.346924 20.4273V22.573C2.19474 22.7621 3.32599 24.2349 3.99474 26.5649C4.66192 28.8876 4.75411 31.7363 4.68317 33.9354C4.6088 36.2248 6.26817 38.3355 8.51099 38.3355H31.4922C33.7351 38.3355 35.3941 36.2245 35.3201 33.9354C35.2488 31.7363 35.3413 28.8876 36.0082 26.5649C36.6769 24.2352 37.8054 22.7625 39.6532 22.573V20.4273C37.8054 20.2382 36.6772 18.7655 36.0082 16.4354C35.3413 14.1127 35.2488 11.264 35.3201 9.06493C35.3941 6.77552 33.7351 4.66449 31.4919 4.66449H8.51099ZM26.6716 25.3871C26.6716 28.5396 24.4835 30.4507 20.8525 30.4507H14.1582C14.1175 30.4507 14.0785 30.4333 14.0497 30.4024C14.0209 30.3715 14.0047 30.3295 14.0047 30.2858V12.7075C14.0047 12.6858 14.0086 12.6643 14.0163 12.6443C14.024 12.6242 14.0353 12.606 14.0496 12.5907C14.0638 12.5753 14.0807 12.5631 14.0994 12.5548C14.118 12.5465 14.138 12.5422 14.1582 12.5422H20.8172C23.8451 12.5422 25.8319 14.3046 25.8319 17.0102C25.8319 18.9092 24.4954 20.6091 22.7922 20.9071V21.0065C25.1104 21.2796 26.6716 23.0047 26.6716 25.3871ZM20.1785 14.8135H16.6541V20.1623H19.6229C21.9172 20.1623 23.1826 19.1696 23.1826 17.3948C23.1826 15.7319 22.0947 14.8135 20.1785 14.8135ZM16.6541 22.2847V28.1798H20.3088C22.6979 28.1798 23.9635 27.1498 23.9635 25.2135C23.9635 23.2774 22.6626 22.2847 20.1551 22.2847H16.6541Z" fill="#7952B3"/>
</svg>
