<svg width="40" height="43" viewBox="0 0 40 43" fill="none" xmlns="http://www.w3.org/2000/svg">
<g clip-path="url(#clip0_270_4)">
<path d="M14.2188 43.3359C17.9375 43.3359 20.9375 40.1109 20.9375 36.1133V28.8906H14.2188C10.5 28.8906 7.5 32.1156 7.5 36.1133C7.5 40.1109 10.5 43.3359 14.2188 43.3359Z" fill="#0ACF83"/>
<path d="M7.5 21.668C7.5 17.6703 10.5 14.4453 14.2188 14.4453H20.9375V28.8906H14.2188C10.5 28.8906 7.5 25.6656 7.5 21.668Z" fill="#A259FF"/>
<path d="M7.5 7.22266C7.5 3.225 10.5 0 14.2188 0H20.9375V14.4453H14.2188C10.5 14.4453 7.5 11.2203 7.5 7.22266Z" fill="#F24E1E"/>
<path d="M20.9375 0H27.6562C31.375 0 34.375 3.225 34.375 7.22266C34.375 11.2203 31.375 14.4453 27.6562 14.4453H20.9375V0Z" fill="#FF7262"/>
<path d="M34.375 21.668C34.375 25.6656 31.375 28.8906 27.6562 28.8906C23.9375 28.8906 20.9375 25.6656 20.9375 21.668C20.9375 17.6703 23.9375 14.4453 27.6562 14.4453C31.375 14.4453 34.375 17.6703 34.375 21.668Z" fill="#1ABCFE"/>
</g>
<defs>
<clipPath id="clip0_270_4">
<rect width="40" height="43" fill="white"/>
</clipPath>
</defs>
</svg>
