<svg width="729" height="1180" viewBox="0 0 729 1180" fill="none" xmlns="http://www.w3.org/2000/svg">
<path d="M541.563 646.633V575.674V558.184M541.563 646.633V558.184M541.563 646.633H456.351M366.127 256.357V8M366.127 256.357H414.884M366.127 256.357H324.66M414.884 256.357V160.413M414.884 256.357H324.66M414.884 256.357H456.351M324.66 256.357V160.413M324.66 256.357H280.915M280.915 256.357H237.169H226.133C204.042 256.357 186.133 274.266 186.133 296.357V339.31M280.915 256.357V191.903C280.915 181.931 277.19 172.319 270.471 164.951L206.639 94.9501M280.915 256.357H456.351M456.351 256.357H501.563C523.655 256.357 541.563 274.266 541.563 296.357V339.31M456.351 256.357V109.941M541.563 339.31H574.941C586.19 339.31 596.918 334.574 604.498 326.262L668.242 256.357M541.563 339.31V387.282M541.563 387.282H592.599M541.563 387.282V446.248M541.563 446.248H717M541.563 446.248V504.715M541.563 504.715H592.599M541.563 504.715V558.184M541.563 558.184H629.054M456.351 646.633V689.6C456.351 699.572 460.076 709.184 466.795 716.553L541.563 798.546M456.351 646.633H414.884M414.884 646.633V729.086M414.884 646.633H366.127M366.127 646.633V879M366.127 646.633H324.66M324.66 646.633V729.086M324.66 646.633H280.915M280.915 646.633H226.133C204.042 646.633 186.133 628.725 186.133 606.633V558.184M280.915 646.633V766.565M186.133 558.184H144.666M186.133 558.184V504.715M186.133 504.715H144.666M186.133 504.715V446.248M186.133 446.248H23M186.133 446.248V387.282M186.133 387.282H144.666M186.133 387.282V339.31M186.133 339.31H115.503" stroke="url(#paint0_linear_1_66)" stroke-width="15" stroke-linecap="round" stroke-linejoin="round"/>
<path d="M304 394L253.563 451.427C250.349 455.086 250.238 460.528 253.301 464.314L304 527" stroke="url(#paint1_linear_1_66)" stroke-width="25" stroke-linecap="round"/>
<path d="M425 393.5L475.437 450.927C478.651 454.586 478.762 460.028 475.699 463.814L425 526.5" stroke="url(#paint2_linear_1_66)" stroke-width="25" stroke-linecap="round"/>
<path d="M343.5 541L383.5 386" stroke="url(#paint3_linear_1_66)" stroke-width="25" stroke-linecap="round"/>
<ellipse cx="192" cy="84.5" rx="34" ry="36.5" fill="#67DD0A"/>
<ellipse cx="192.5" cy="84.5" rx="11.5" ry="13.5" fill="#F5F5F5"/>
<ellipse cx="460" cy="88.5" rx="34" ry="36.5" fill="#67DD0A"/>
<ellipse cx="460.5" cy="88.5" rx="11.5" ry="13.5" fill="#F5F5F5"/>
<ellipse cx="695" cy="240.5" rx="34" ry="36.5" fill="#67DD0A"/>
<ellipse cx="695.5" cy="240.5" rx="11.5" ry="13.5" fill="#F5F5F5"/>
<ellipse cx="663" cy="563.5" rx="34" ry="36.5" fill="#67DD0A"/>
<ellipse cx="663.5" cy="563.5" rx="11.5" ry="13.5" fill="#F5F5F5"/>
<ellipse cx="569" cy="805.5" rx="34" ry="36.5" fill="#67DD0A"/>
<ellipse cx="569.5" cy="805.5" rx="11.5" ry="13.5" fill="#F5F5F5"/>
<ellipse cx="279" cy="779.5" rx="34" ry="36.5" fill="#67DD0A"/>
<ellipse cx="279.5" cy="779.5" rx="11.5" ry="13.5" fill="#F5F5F5"/>
<ellipse cx="81" cy="337.5" rx="34" ry="36.5" fill="#67DD0A"/>
<ellipse cx="81.5" cy="337.5" rx="11.5" ry="13.5" fill="#F5F5F5"/>
<path d="M175.5 606.5H113.5L33.5 718.5" stroke="url(#paint4_linear_1_66)" stroke-width="20"/>
<ellipse cx="34" cy="718.5" rx="34" ry="36.5" fill="#67DD0A"/>
<ellipse cx="34.5" cy="718.5" rx="11.5" ry="13.5" fill="#F5F5F5"/>
<path d="M188.828 993H178.985L196.907 942.091H208.292L226.24 993H216.396L202.799 952.531H202.401L188.828 993ZM189.152 973.039H215.998V980.447H189.152V973.039ZM274.781 942.091V993H266.578L242.59 958.323H242.167V993H232.945V942.091H241.198L265.161 976.793H265.608V942.091H274.781ZM291.368 993H281.524L299.446 942.091H310.831L328.779 993H318.935L305.338 952.531H304.94L291.368 993ZM291.691 973.039H318.537V980.447H291.691V973.039ZM301.684 937.07L307.252 925.71H316.051L308.42 937.07H301.684ZM335.484 993V942.091H344.706V985.269H367.128V993H335.484ZM384.355 942.091V993H375.133V942.091H384.355ZM422.009 956.086C421.777 953.915 420.799 952.225 419.075 951.015C417.368 949.805 415.148 949.2 412.413 949.2C410.491 949.2 408.842 949.49 407.467 950.07C406.091 950.65 405.039 951.437 404.31 952.432C403.58 953.426 403.208 954.561 403.191 955.837C403.191 956.898 403.431 957.818 403.912 958.597C404.409 959.375 405.08 960.038 405.925 960.585C406.771 961.116 407.707 961.563 408.734 961.928C409.762 962.292 410.798 962.599 411.842 962.847L416.614 964.04C418.537 964.488 420.384 965.093 422.158 965.855C423.947 966.617 425.547 967.579 426.955 968.739C428.38 969.899 429.507 971.299 430.336 972.94C431.165 974.58 431.579 976.503 431.579 978.707C431.579 981.69 430.817 984.316 429.292 986.587C427.767 988.84 425.563 990.605 422.68 991.881C419.813 993.141 416.341 993.771 412.264 993.771C408.304 993.771 404.865 993.157 401.948 991.931C399.048 990.705 396.778 988.915 395.137 986.562C393.513 984.209 392.635 981.342 392.502 977.961H401.575C401.708 979.734 402.255 981.209 403.216 982.386C404.177 983.562 405.428 984.441 406.969 985.021C408.527 985.601 410.267 985.891 412.19 985.891C414.195 985.891 415.951 985.592 417.46 984.996C418.984 984.383 420.177 983.537 421.039 982.46C421.901 981.366 422.34 980.09 422.357 978.632C422.34 977.306 421.951 976.213 421.188 975.351C420.426 974.473 419.357 973.743 417.982 973.163C416.623 972.567 415.032 972.036 413.209 971.572L407.417 970.081C403.224 969.004 399.91 967.371 397.474 965.184C395.054 962.98 393.844 960.055 393.844 956.409C393.844 953.41 394.656 950.783 396.281 948.529C397.921 946.275 400.15 944.527 402.967 943.284C405.785 942.025 408.975 941.395 412.538 941.395C416.15 941.395 419.316 942.025 422.033 943.284C424.768 944.527 426.914 946.259 428.472 948.479C430.029 950.683 430.833 953.219 430.883 956.086H422.009ZM439.801 993V942.091H472.911V949.822H449.023V963.643H471.196V971.374H449.023V985.269H473.11V993H439.801ZM499.683 993V942.091H532.794V949.822H508.906V963.643H531.079V971.374H508.906V985.269H532.993V993H499.683ZM43.2727 1078H26.0213V1027.09H43.6207C48.6752 1027.09 53.017 1028.11 56.6463 1030.15C60.2921 1032.17 63.0928 1035.08 65.0483 1038.87C67.0038 1042.67 67.9815 1047.21 67.9815 1052.5C67.9815 1057.8 66.9955 1062.36 65.0234 1066.17C63.0679 1069.98 60.2424 1072.9 56.5469 1074.94C52.8679 1076.98 48.4432 1078 43.2727 1078ZM35.2436 1070.02H42.8253C46.3717 1070.02 49.3298 1069.37 51.6996 1068.08C54.0694 1066.77 55.8509 1064.83 57.044 1062.24C58.2372 1059.64 58.8338 1056.39 58.8338 1052.5C58.8338 1048.6 58.2372 1045.37 57.044 1042.8C55.8509 1040.22 54.0859 1038.29 51.7493 1037.01C49.4292 1035.72 46.5457 1035.07 43.0987 1035.07H35.2436V1070.02ZM76.744 1078V1027.09H109.855V1034.82H85.9663V1048.64H108.14V1056.37H85.9663V1070.27H110.054V1078H76.744ZM146.93 1041.09C146.698 1038.92 145.721 1037.22 143.997 1036.01C142.29 1034.81 140.07 1034.2 137.335 1034.2C135.413 1034.2 133.764 1034.49 132.388 1035.07C131.013 1035.65 129.961 1036.44 129.232 1037.43C128.502 1038.43 128.129 1039.56 128.113 1040.84C128.113 1041.9 128.353 1042.82 128.834 1043.6C129.331 1044.38 130.002 1045.04 130.847 1045.59C131.692 1046.12 132.629 1046.56 133.656 1046.93C134.684 1047.29 135.719 1047.6 136.763 1047.85L141.536 1049.04C143.459 1049.49 145.306 1050.09 147.08 1050.86C148.869 1051.62 150.469 1052.58 151.877 1053.74C153.302 1054.9 154.429 1056.3 155.258 1057.94C156.086 1059.58 156.501 1061.5 156.501 1063.71C156.501 1066.69 155.738 1069.32 154.214 1071.59C152.689 1073.84 150.485 1075.61 147.602 1076.88C144.735 1078.14 141.263 1078.77 137.186 1078.77C133.225 1078.77 129.787 1078.16 126.87 1076.93C123.97 1075.7 121.7 1073.92 120.059 1071.56C118.435 1069.21 117.557 1066.34 117.424 1062.96H126.497C126.63 1064.73 127.177 1066.21 128.138 1067.39C129.099 1068.56 130.35 1069.44 131.891 1070.02C133.449 1070.6 135.189 1070.89 137.112 1070.89C139.117 1070.89 140.873 1070.59 142.381 1070C143.906 1069.38 145.099 1068.54 145.961 1067.46C146.823 1066.37 147.262 1065.09 147.278 1063.63C147.262 1062.31 146.872 1061.21 146.11 1060.35C145.348 1059.47 144.279 1058.74 142.903 1058.16C141.545 1057.57 139.954 1057.04 138.131 1056.57L132.339 1055.08C128.146 1054 124.832 1052.37 122.396 1050.18C119.976 1047.98 118.766 1045.05 118.766 1041.41C118.766 1038.41 119.578 1035.78 121.202 1033.53C122.843 1031.28 125.072 1029.53 127.889 1028.28C130.706 1027.02 133.897 1026.39 137.46 1026.39C141.072 1026.39 144.237 1027.02 146.955 1028.28C149.69 1029.53 151.836 1031.26 153.393 1033.48C154.951 1035.68 155.755 1038.22 155.805 1041.09H146.93ZM164.722 1078V1027.09H197.833V1034.82H173.945V1048.64H196.118V1056.37H173.945V1070.27H198.032V1078H164.722ZM249.078 1027.09V1078H240.875L216.887 1043.32H216.464V1078H207.242V1027.09H215.495L239.458 1061.79H239.905V1027.09H249.078ZM265.938 1027.09L279.187 1067.16H279.709L292.934 1027.09H303.076L285.128 1078H273.743L255.821 1027.09H265.938ZM352.537 1052.55C352.537 1058.03 351.509 1062.73 349.454 1066.64C347.416 1070.53 344.632 1073.52 341.102 1075.59C337.589 1077.66 333.603 1078.7 329.145 1078.7C324.688 1078.7 320.694 1077.66 317.164 1075.59C313.651 1073.5 310.867 1070.51 308.812 1066.62C306.773 1062.7 305.754 1058.01 305.754 1052.55C305.754 1047.06 306.773 1042.37 308.812 1038.48C310.867 1034.56 313.651 1031.57 317.164 1029.5C320.694 1027.43 324.688 1026.39 329.145 1026.39C333.603 1026.39 337.589 1027.43 341.102 1029.5C344.632 1031.57 347.416 1034.56 349.454 1038.48C351.509 1042.37 352.537 1047.06 352.537 1052.55ZM343.265 1052.55C343.265 1048.68 342.66 1045.43 341.45 1042.78C340.257 1040.11 338.6 1038.09 336.479 1036.74C334.357 1035.36 331.913 1034.67 329.145 1034.67C326.378 1034.67 323.934 1035.36 321.812 1036.74C319.691 1038.09 318.026 1040.11 316.816 1042.78C315.623 1045.43 315.026 1048.68 315.026 1052.55C315.026 1056.41 315.623 1059.67 316.816 1062.34C318.026 1064.99 319.691 1067 321.812 1068.38C323.934 1069.74 326.378 1070.42 329.145 1070.42C331.913 1070.42 334.357 1069.74 336.479 1068.38C338.6 1067 340.257 1064.99 341.45 1062.34C342.66 1059.67 343.265 1056.41 343.265 1052.55ZM361.256 1078V1027.09H370.478V1070.27H392.9V1078H361.256ZM402.452 1027.09L415.701 1067.16H416.223L429.447 1027.09H439.589L421.642 1078H410.257L392.334 1027.09H402.452ZM455.517 1027.09V1078H446.295V1027.09H455.517ZM465.504 1027.09H476.789L491.903 1063.98H492.499L507.613 1027.09H518.899V1078H510.049V1043.02H509.577L495.507 1077.85H488.895L474.825 1042.95H474.353V1078H465.504V1027.09ZM528.941 1078V1027.09H562.052V1034.82H538.164V1048.64H560.337V1056.37H538.164V1070.27H562.251V1078H528.941ZM613.297 1027.09V1078H605.094L581.106 1043.32H580.683V1078H571.461V1027.09H579.714L603.677 1061.79H604.124V1027.09H613.297ZM621.108 1034.82V1027.09H661.726V1034.82H645.991V1078H636.843V1034.82H621.108ZM712.791 1052.55C712.791 1058.03 711.763 1062.73 709.708 1066.64C707.67 1070.53 704.886 1073.52 701.356 1075.59C697.843 1077.66 693.857 1078.7 689.399 1078.7C684.941 1078.7 680.948 1077.66 677.418 1075.59C673.905 1073.5 671.12 1070.51 669.066 1066.62C667.027 1062.7 666.008 1058.01 666.008 1052.55C666.008 1047.06 667.027 1042.37 669.066 1038.48C671.12 1034.56 673.905 1031.57 677.418 1029.5C680.948 1027.43 684.941 1026.39 689.399 1026.39C693.857 1026.39 697.843 1027.43 701.356 1029.5C704.886 1031.57 707.67 1034.56 709.708 1038.48C711.763 1042.37 712.791 1047.06 712.791 1052.55ZM703.519 1052.55C703.519 1048.68 702.914 1045.43 701.704 1042.78C700.511 1040.11 698.854 1038.09 696.732 1036.74C694.611 1035.36 692.167 1034.67 689.399 1034.67C686.632 1034.67 684.187 1035.36 682.066 1036.74C679.945 1038.09 678.28 1040.11 677.07 1042.78C675.877 1045.43 675.28 1048.68 675.28 1052.55C675.28 1056.41 675.877 1059.67 677.07 1062.34C678.28 1064.99 679.945 1067 682.066 1068.38C684.187 1069.74 686.632 1070.42 689.399 1070.42C692.167 1070.42 694.611 1069.74 696.732 1068.38C698.854 1067 700.511 1064.99 701.704 1062.34C702.914 1059.67 703.519 1056.41 703.519 1052.55ZM164.816 1163H147.564V1112.09H165.164C170.218 1112.09 174.56 1113.11 178.189 1115.15C181.835 1117.17 184.636 1120.08 186.591 1123.87C188.547 1127.67 189.525 1132.21 189.525 1137.5C189.525 1142.8 188.538 1147.36 186.566 1151.17C184.611 1154.98 181.785 1157.9 178.09 1159.94C174.411 1161.98 169.986 1163 164.816 1163ZM156.787 1155.02H164.368C167.915 1155.02 170.873 1154.37 173.243 1153.08C175.612 1151.77 177.394 1149.83 178.587 1147.24C179.78 1144.64 180.377 1141.39 180.377 1137.5C180.377 1133.6 179.78 1130.37 178.587 1127.8C177.394 1125.22 175.629 1123.29 173.292 1122.01C170.972 1120.72 168.089 1120.07 164.642 1120.07H156.787V1155.02ZM198.287 1163V1112.09H231.398V1119.82H207.509V1133.64H229.683V1141.37H207.509V1155.27H231.597V1163H198.287ZM285.837 1126.09C285.605 1123.92 284.627 1122.22 282.903 1121.01C281.196 1119.81 278.976 1119.2 276.241 1119.2C274.319 1119.2 272.67 1119.49 271.295 1120.07C269.919 1120.65 268.867 1121.44 268.138 1122.43C267.409 1123.43 267.036 1124.56 267.019 1125.84C267.019 1126.9 267.259 1127.82 267.74 1128.6C268.237 1129.38 268.908 1130.04 269.754 1130.59C270.599 1131.12 271.535 1131.56 272.562 1131.93C273.59 1132.29 274.626 1132.6 275.67 1132.85L280.442 1134.04C282.365 1134.49 284.213 1135.09 285.986 1135.86C287.776 1136.62 289.375 1137.58 290.783 1138.74C292.209 1139.9 293.335 1141.3 294.164 1142.94C294.993 1144.58 295.407 1146.5 295.407 1148.71C295.407 1151.69 294.645 1154.32 293.12 1156.59C291.595 1158.84 289.391 1160.61 286.508 1161.88C283.641 1163.14 280.169 1163.77 276.092 1163.77C272.132 1163.77 268.693 1163.16 265.776 1161.93C262.876 1160.7 260.606 1158.92 258.965 1156.56C257.341 1154.21 256.463 1151.34 256.33 1147.96H265.403C265.536 1149.73 266.083 1151.21 267.044 1152.39C268.005 1153.56 269.256 1154.44 270.798 1155.02C272.355 1155.6 274.095 1155.89 276.018 1155.89C278.023 1155.89 279.78 1155.59 281.288 1155C282.812 1154.38 284.005 1153.54 284.867 1152.46C285.729 1151.37 286.168 1150.09 286.185 1148.63C286.168 1147.31 285.779 1146.21 285.016 1145.35C284.254 1144.47 283.185 1143.74 281.81 1143.16C280.451 1142.57 278.86 1142.04 277.037 1141.57L271.245 1140.08C267.052 1139 263.738 1137.37 261.302 1135.18C258.882 1132.98 257.673 1130.05 257.673 1126.41C257.673 1123.41 258.485 1120.78 260.109 1118.53C261.749 1116.28 263.978 1114.53 266.795 1113.28C269.613 1112.02 272.803 1111.39 276.366 1111.39C279.978 1111.39 283.144 1112.02 285.862 1113.28C288.596 1114.53 290.742 1116.26 292.3 1118.48C293.857 1120.68 294.661 1123.22 294.711 1126.09H285.837ZM312.851 1112.09V1163H303.629V1112.09H312.851ZM350.505 1126.09C350.273 1123.92 349.295 1122.22 347.571 1121.01C345.864 1119.81 343.644 1119.2 340.909 1119.2C338.987 1119.2 337.338 1119.49 335.963 1120.07C334.587 1120.65 333.535 1121.44 332.806 1122.43C332.077 1123.43 331.704 1124.56 331.687 1125.84C331.687 1126.9 331.927 1127.82 332.408 1128.6C332.905 1129.38 333.576 1130.04 334.422 1130.59C335.267 1131.12 336.203 1131.56 337.23 1131.93C338.258 1132.29 339.294 1132.6 340.338 1132.85L345.11 1134.04C347.033 1134.49 348.881 1135.09 350.654 1135.86C352.444 1136.62 354.043 1137.58 355.451 1138.74C356.877 1139.9 358.003 1141.3 358.832 1142.94C359.661 1144.58 360.075 1146.5 360.075 1148.71C360.075 1151.69 359.313 1154.32 357.788 1156.59C356.263 1158.84 354.059 1160.61 351.176 1161.88C348.309 1163.14 344.837 1163.77 340.76 1163.77C336.8 1163.77 333.361 1163.16 330.444 1161.93C327.544 1160.7 325.274 1158.92 323.633 1156.56C322.009 1154.21 321.131 1151.34 320.998 1147.96H330.071C330.204 1149.73 330.751 1151.21 331.712 1152.39C332.673 1153.56 333.924 1154.44 335.466 1155.02C337.023 1155.6 338.763 1155.89 340.686 1155.89C342.691 1155.89 344.448 1155.59 345.956 1155C347.48 1154.38 348.673 1153.54 349.535 1152.46C350.397 1151.37 350.836 1150.09 350.853 1148.63C350.836 1147.31 350.447 1146.21 349.684 1145.35C348.922 1144.47 347.853 1143.74 346.478 1143.16C345.119 1142.57 343.528 1142.04 341.705 1141.57L335.913 1140.08C331.72 1139 328.406 1137.37 325.97 1135.18C323.55 1132.98 322.341 1130.05 322.341 1126.41C322.341 1123.41 323.153 1120.78 324.777 1118.53C326.417 1116.28 328.646 1114.53 331.463 1113.28C334.281 1112.02 337.471 1111.39 341.034 1111.39C344.646 1111.39 347.812 1112.02 350.529 1113.28C353.264 1114.53 355.41 1116.26 356.968 1118.48C358.525 1120.68 359.329 1123.22 359.379 1126.09H350.505ZM366.059 1119.82V1112.09H406.677V1119.82H390.942V1163H381.795V1119.82H366.059ZM414.508 1163V1112.09H447.618V1119.82H423.73V1133.64H445.903V1141.37H423.73V1155.27H447.817V1163H414.508ZM457.027 1112.09H468.313L483.426 1148.98H484.023L499.137 1112.09H510.422V1163H501.573V1128.02H501.1L487.031 1162.85H480.419L466.349 1127.95H465.877V1163H457.027V1112.09ZM527.002 1163H517.159L535.081 1112.09H546.466L564.414 1163H554.57L540.972 1122.53H540.575L527.002 1163ZM527.325 1143.04H554.172V1150.45H527.325V1143.04ZM597.966 1126.09C597.734 1123.92 596.756 1122.22 595.032 1121.01C593.325 1119.81 591.105 1119.2 588.37 1119.2C586.448 1119.2 584.799 1119.49 583.424 1120.07C582.048 1120.65 580.996 1121.44 580.267 1122.43C579.538 1123.43 579.165 1124.56 579.148 1125.84C579.148 1126.9 579.388 1127.82 579.869 1128.6C580.366 1129.38 581.037 1130.04 581.882 1130.59C582.728 1131.12 583.664 1131.56 584.691 1131.93C585.719 1132.29 586.755 1132.6 587.799 1132.85L592.571 1134.04C594.494 1134.49 596.342 1135.09 598.115 1135.86C599.904 1136.62 601.504 1137.58 602.912 1138.74C604.337 1139.9 605.464 1141.3 606.293 1142.94C607.122 1144.58 607.536 1146.5 607.536 1148.71C607.536 1151.69 606.774 1154.32 605.249 1156.59C603.724 1158.84 601.52 1160.61 598.637 1161.88C595.77 1163.14 592.298 1163.77 588.221 1163.77C584.261 1163.77 580.822 1163.16 577.905 1161.93C575.005 1160.7 572.735 1158.92 571.094 1156.56C569.47 1154.21 568.592 1151.34 568.459 1147.96H577.532C577.665 1149.73 578.212 1151.21 579.173 1152.39C580.134 1153.56 581.385 1154.44 582.926 1155.02C584.484 1155.6 586.224 1155.89 588.147 1155.89C590.152 1155.89 591.909 1155.59 593.417 1155C594.941 1154.38 596.134 1153.54 596.996 1152.46C597.858 1151.37 598.297 1150.09 598.314 1148.63C598.297 1147.31 597.908 1146.21 597.145 1145.35C596.383 1144.47 595.314 1143.74 593.939 1143.16C592.58 1142.57 590.989 1142.04 589.166 1141.57L583.374 1140.08C579.181 1139 575.867 1137.37 573.431 1135.18C571.011 1132.98 569.801 1130.05 569.801 1126.41C569.801 1123.41 570.614 1120.78 572.238 1118.53C573.878 1116.28 576.107 1114.53 578.924 1113.28C581.742 1112.02 584.932 1111.39 588.495 1111.39C592.107 1111.39 595.273 1112.02 597.99 1113.28C600.725 1114.53 602.871 1116.26 604.429 1118.48C605.986 1120.68 606.79 1123.22 606.84 1126.09H597.966Z" fill="#FFFCFC"/>
<defs>
<linearGradient id="paint0_linear_1_66" x1="370" y1="8" x2="370" y2="879" gradientUnits="userSpaceOnUse">
<stop stop-color="#67DD0A"/>
<stop offset="1" stop-color="#58A31E"/>
</linearGradient>
<linearGradient id="paint1_linear_1_66" x1="276" y1="394" x2="276" y2="527" gradientUnits="userSpaceOnUse">
<stop stop-color="#67DD0A"/>
<stop offset="1" stop-color="#58A31E"/>
</linearGradient>
<linearGradient id="paint2_linear_1_66" x1="453" y1="393.5" x2="453" y2="526.5" gradientUnits="userSpaceOnUse">
<stop stop-color="#67DD0A"/>
<stop offset="1" stop-color="#58A31E"/>
</linearGradient>
<linearGradient id="paint3_linear_1_66" x1="363.5" y1="386" x2="363.5" y2="541" gradientUnits="userSpaceOnUse">
<stop stop-color="#67DD0A"/>
<stop offset="1" stop-color="#58A31E"/>
</linearGradient>
<linearGradient id="paint4_linear_1_66" x1="104.5" y1="606.5" x2="104.5" y2="718.5" gradientUnits="userSpaceOnUse">
<stop stop-color="#67DD0A"/>
<stop offset="1" stop-color="#58A31E"/>
</linearGradient>
</defs>
</svg>
