<svg width="465" height="52" viewBox="0 0 465 52" fill="none" xmlns="http://www.w3.org/2000/svg">
<path d="M35.144 41H27.416L26.84 27.992C26.68 24.888 26.6 22.12 26.6 19.688C26.6 17.832 26.648 16.072 26.744 14.408L21.608 37.496H14.168L8.69598 14.408C8.88799 17.192 8.98398 19.816 8.98398 22.28C8.98398 24.136 8.93598 26.072 8.83998 28.088L8.26398 41H0.583984L3.07998 7.736H13.016L18.008 30.296L22.664 7.736H32.648L35.144 41Z" fill="#1B1B1C"/>
<path d="M59.9664 33.608C59.9664 34.568 60.0944 35.272 60.3504 35.72C60.6384 36.168 61.0864 36.504 61.6944 36.728L60.1104 41.672C58.5424 41.544 57.2624 41.208 56.2704 40.664C55.2784 40.088 54.5104 39.192 53.9664 37.976C52.3024 40.536 49.7424 41.816 46.2864 41.816C43.7584 41.816 41.7424 41.08 40.2384 39.608C38.7344 38.136 37.9824 36.216 37.9824 33.848C37.9824 31.064 39.0064 28.936 41.0544 27.464C43.1024 25.992 46.0624 25.256 49.9344 25.256H52.5264V24.152C52.5264 22.648 52.2064 21.624 51.5664 21.08C50.9264 20.504 49.8064 20.216 48.2064 20.216C47.3744 20.216 46.3664 20.344 45.1824 20.6C43.9984 20.824 42.7824 21.144 41.5344 21.56L39.8064 16.568C41.4064 15.96 43.0384 15.496 44.7024 15.176C46.3984 14.856 47.9664 14.696 49.4064 14.696C53.0544 14.696 55.7264 15.448 57.4224 16.952C59.1184 18.456 59.9664 20.712 59.9664 23.72V33.608ZM48.4944 36.392C50.2224 36.392 51.5664 35.576 52.5264 33.944V29.432H50.6544C48.9264 29.432 47.6304 29.736 46.7664 30.344C45.9344 30.952 45.5184 31.896 45.5184 33.176C45.5184 34.2 45.7744 35 46.2864 35.576C46.8304 36.12 47.5664 36.392 48.4944 36.392Z" fill="#1B1B1C"/>
<path d="M79.8312 14.792C80.7592 14.792 81.6072 14.904 82.3752 15.128L81.1752 22.472C80.2152 22.248 79.4472 22.136 78.8712 22.136C77.3672 22.136 76.2152 22.664 75.4152 23.72C74.6472 24.744 74.0392 26.296 73.5912 28.376V41H66.0072V15.512H72.6312L73.2552 20.456C73.8312 18.696 74.6952 17.32 75.8472 16.328C77.0312 15.304 78.3592 14.792 79.8312 14.792Z" fill="#1B1B1C"/>
<path d="M92.8569 15.512V41H85.2729V15.512H92.8569ZM89.0169 2.072C90.3289 2.072 91.4009 2.488 92.2329 3.32C93.0969 4.12 93.5289 5.144 93.5289 6.392C93.5289 7.64 93.0969 8.68 92.2329 9.512C91.4009 10.312 90.3289 10.712 89.0169 10.712C87.7049 10.712 86.6329 10.312 85.8009 9.512C84.9689 8.68 84.5529 7.64 84.5529 6.392C84.5529 5.144 84.9689 4.12 85.8009 3.32C86.6329 2.488 87.7049 2.072 89.0169 2.072Z" fill="#1B1B1C"/>
<path d="M119.076 33.608C119.076 34.568 119.204 35.272 119.46 35.72C119.748 36.168 120.196 36.504 120.804 36.728L119.22 41.672C117.652 41.544 116.372 41.208 115.38 40.664C114.388 40.088 113.62 39.192 113.076 37.976C111.412 40.536 108.852 41.816 105.396 41.816C102.868 41.816 100.852 41.08 99.3477 39.608C97.8437 38.136 97.0917 36.216 97.0917 33.848C97.0917 31.064 98.1157 28.936 100.164 27.464C102.212 25.992 105.172 25.256 109.044 25.256H111.636V24.152C111.636 22.648 111.316 21.624 110.676 21.08C110.036 20.504 108.916 20.216 107.316 20.216C106.484 20.216 105.476 20.344 104.292 20.6C103.108 20.824 101.892 21.144 100.644 21.56L98.9157 16.568C100.516 15.96 102.148 15.496 103.812 15.176C105.508 14.856 107.076 14.696 108.516 14.696C112.164 14.696 114.836 15.448 116.532 16.952C118.228 18.456 119.076 20.712 119.076 23.72V33.608ZM107.604 36.392C109.332 36.392 110.676 35.576 111.636 33.944V29.432H109.764C108.036 29.432 106.74 29.736 105.876 30.344C105.044 30.952 104.628 31.896 104.628 33.176C104.628 34.2 104.884 35 105.396 35.576C105.94 36.12 106.676 36.392 107.604 36.392Z" fill="#1B1B1C"/>
<path d="M157.051 7.736L156.235 13.352H144.523V21.32H154.747V26.84H144.523V35.336H157.051V41H136.651V7.736H157.051Z" fill="#1B1B1C"/>
<path d="M183.683 5.384V41H176.963L176.579 38.024C174.787 40.552 172.371 41.816 169.331 41.816C166.163 41.816 163.747 40.6 162.083 38.168C160.451 35.736 159.635 32.408 159.635 28.184C159.635 25.592 160.067 23.272 160.931 21.224C161.795 19.176 163.011 17.576 164.579 16.424C166.179 15.272 168.003 14.696 170.051 14.696C172.483 14.696 174.499 15.496 176.099 17.096V4.568L183.683 5.384ZM171.683 36.248C173.443 36.248 174.915 35.288 176.099 33.368V22.376C175.491 21.64 174.867 21.096 174.227 20.744C173.619 20.392 172.915 20.216 172.115 20.216C170.707 20.216 169.587 20.872 168.755 22.184C167.923 23.496 167.507 25.512 167.507 28.232C167.507 31.208 167.859 33.288 168.563 34.472C169.299 35.656 170.339 36.248 171.683 36.248Z" fill="#1B1B1C"/>
<path d="M211.121 41H204.545L204.209 37.784C202.353 40.472 199.777 41.816 196.481 41.816C194.145 41.816 192.369 41.112 191.153 39.704C189.969 38.296 189.377 36.328 189.377 33.8V15.512H196.961V32.84C196.961 34.088 197.153 34.968 197.537 35.48C197.953 35.96 198.577 36.2 199.409 36.2C201.009 36.2 202.385 35.208 203.537 33.224V15.512H211.121V41Z" fill="#1B1B1C"/>
<path d="M237.341 33.608C237.341 34.568 237.469 35.272 237.725 35.72C238.013 36.168 238.461 36.504 239.069 36.728L237.485 41.672C235.917 41.544 234.637 41.208 233.645 40.664C232.653 40.088 231.885 39.192 231.341 37.976C229.677 40.536 227.117 41.816 223.661 41.816C221.133 41.816 219.117 41.08 217.613 39.608C216.109 38.136 215.357 36.216 215.357 33.848C215.357 31.064 216.381 28.936 218.429 27.464C220.477 25.992 223.437 25.256 227.309 25.256H229.901V24.152C229.901 22.648 229.581 21.624 228.941 21.08C228.301 20.504 227.181 20.216 225.581 20.216C224.749 20.216 223.741 20.344 222.557 20.6C221.373 20.824 220.157 21.144 218.909 21.56L217.181 16.568C218.781 15.96 220.413 15.496 222.077 15.176C223.773 14.856 225.341 14.696 226.781 14.696C230.429 14.696 233.101 15.448 234.797 16.952C236.493 18.456 237.341 20.712 237.341 23.72V33.608ZM225.869 36.392C227.597 36.392 228.941 35.576 229.901 33.944V29.432H228.029C226.301 29.432 225.005 29.736 224.141 30.344C223.309 30.952 222.893 31.896 222.893 33.176C222.893 34.2 223.149 35 223.661 35.576C224.205 36.12 224.941 36.392 225.869 36.392Z" fill="#1B1B1C"/>
<path d="M257.206 14.792C258.134 14.792 258.982 14.904 259.75 15.128L258.55 22.472C257.59 22.248 256.822 22.136 256.246 22.136C254.742 22.136 253.59 22.664 252.79 23.72C252.022 24.744 251.414 26.296 250.966 28.376V41H243.382V15.512H250.006L250.63 20.456C251.206 18.696 252.07 17.32 253.222 16.328C254.406 15.304 255.734 14.792 257.206 14.792Z" fill="#1B1B1C"/>
<path d="M284.043 5.384V41H277.323L276.939 38.024C275.147 40.552 272.731 41.816 269.691 41.816C266.523 41.816 264.107 40.6 262.443 38.168C260.811 35.736 259.995 32.408 259.995 28.184C259.995 25.592 260.427 23.272 261.291 21.224C262.155 19.176 263.371 17.576 264.939 16.424C266.539 15.272 268.363 14.696 270.411 14.696C272.843 14.696 274.859 15.496 276.459 17.096V4.568L284.043 5.384ZM272.043 36.248C273.803 36.248 275.275 35.288 276.459 33.368V22.376C275.851 21.64 275.227 21.096 274.587 20.744C273.979 20.392 273.275 20.216 272.475 20.216C271.067 20.216 269.947 20.872 269.115 22.184C268.283 23.496 267.867 25.512 267.867 28.232C267.867 31.208 268.219 33.288 268.923 34.472C269.659 35.656 270.699 36.248 272.043 36.248Z" fill="#1B1B1C"/>
<path d="M310.232 33.608C310.232 34.568 310.36 35.272 310.616 35.72C310.904 36.168 311.352 36.504 311.96 36.728L310.376 41.672C308.808 41.544 307.528 41.208 306.536 40.664C305.544 40.088 304.776 39.192 304.232 37.976C302.568 40.536 300.008 41.816 296.552 41.816C294.024 41.816 292.008 41.08 290.504 39.608C289 38.136 288.248 36.216 288.248 33.848C288.248 31.064 289.272 28.936 291.32 27.464C293.368 25.992 296.328 25.256 300.2 25.256H302.792V24.152C302.792 22.648 302.472 21.624 301.832 21.08C301.192 20.504 300.072 20.216 298.472 20.216C297.64 20.216 296.632 20.344 295.448 20.6C294.264 20.824 293.048 21.144 291.8 21.56L290.072 16.568C291.672 15.96 293.304 15.496 294.968 15.176C296.664 14.856 298.232 14.696 299.672 14.696C303.32 14.696 305.992 15.448 307.688 16.952C309.384 18.456 310.232 20.712 310.232 23.72V33.608ZM298.76 36.392C300.488 36.392 301.832 35.576 302.792 33.944V29.432H300.92C299.192 29.432 297.896 29.736 297.032 30.344C296.2 30.952 295.784 31.896 295.784 33.176C295.784 34.2 296.04 35 296.552 35.576C297.096 36.12 297.832 36.392 298.76 36.392Z" fill="#1B1B1C"/>
<path d="M345.327 41L343.599 33.848H333.903L332.223 41H324.063L334.095 7.736H343.647L353.679 41H345.327ZM335.247 28.136H342.255L338.751 13.448L335.247 28.136Z" fill="#1B1B1C"/>
<path d="M369.8 14.792C370.728 14.792 371.576 14.904 372.344 15.128L371.144 22.472C370.184 22.248 369.416 22.136 368.84 22.136C367.336 22.136 366.184 22.664 365.384 23.72C364.616 24.744 364.008 26.296 363.56 28.376V41H355.976V15.512H362.6L363.224 20.456C363.8 18.696 364.664 17.32 365.816 16.328C367 15.304 368.328 14.792 369.8 14.792Z" fill="#1B1B1C"/>
<path d="M393.81 33.608C393.81 34.568 393.938 35.272 394.194 35.72C394.482 36.168 394.93 36.504 395.538 36.728L393.954 41.672C392.386 41.544 391.106 41.208 390.114 40.664C389.122 40.088 388.354 39.192 387.81 37.976C386.146 40.536 383.586 41.816 380.13 41.816C377.602 41.816 375.586 41.08 374.082 39.608C372.578 38.136 371.826 36.216 371.826 33.848C371.826 31.064 372.85 28.936 374.898 27.464C376.946 25.992 379.906 25.256 383.778 25.256H386.37V24.152C386.37 22.648 386.05 21.624 385.41 21.08C384.77 20.504 383.65 20.216 382.05 20.216C381.218 20.216 380.21 20.344 379.026 20.6C377.842 20.824 376.626 21.144 375.378 21.56L373.65 16.568C375.25 15.96 376.882 15.496 378.546 15.176C380.242 14.856 381.81 14.696 383.25 14.696C386.898 14.696 389.57 15.448 391.266 16.952C392.962 18.456 393.81 20.712 393.81 23.72V33.608ZM382.338 36.392C384.066 36.392 385.41 35.576 386.37 33.944V29.432H384.498C382.77 29.432 381.474 29.736 380.61 30.344C379.778 30.952 379.362 31.896 379.362 33.176C379.362 34.2 379.618 35 380.13 35.576C380.674 36.12 381.41 36.392 382.338 36.392Z" fill="#1B1B1C"/>
<path d="M421.355 41H414.779L414.443 37.784C412.587 40.472 410.011 41.816 406.715 41.816C404.379 41.816 402.603 41.112 401.387 39.704C400.203 38.296 399.611 36.328 399.611 33.8V15.512H407.195V32.84C407.195 34.088 407.387 34.968 407.771 35.48C408.187 35.96 408.811 36.2 409.643 36.2C411.243 36.2 412.619 35.208 413.771 33.224V15.512H421.355V41ZM413.963 0.919998L416.939 6.584L405.611 11.144L403.499 7.256L413.963 0.919998Z" fill="#1B1B1C"/>
<path d="M434.856 38.12C434.856 40.776 434.424 42.968 433.56 44.696C432.728 46.424 431.576 47.8 430.104 48.824C428.664 49.88 426.84 50.808 424.632 51.608L422.088 46.088C423.336 45.512 424.312 44.952 425.016 44.408C425.72 43.864 426.264 43.128 426.648 42.2C427.064 41.304 427.272 40.104 427.272 38.6V15.512H434.856V38.12ZM431.064 2.072C432.376 2.072 433.448 2.488 434.28 3.32C435.144 4.12 435.576 5.144 435.576 6.392C435.576 7.64 435.144 8.68 434.28 9.512C433.448 10.312 432.376 10.712 431.064 10.712C429.752 10.712 428.68 10.312 427.848 9.512C427.016 8.68 426.6 7.64 426.6 6.392C426.6 5.144 427.016 4.12 427.848 3.32C428.68 2.488 429.752 2.072 431.064 2.072Z" fill="#1B1B1C"/>
<path d="M451.86 14.696C455.764 14.696 458.82 15.896 461.028 18.296C463.236 20.664 464.34 23.992 464.34 28.28C464.34 31 463.828 33.384 462.804 35.432C461.812 37.448 460.372 39.016 458.484 40.136C456.628 41.256 454.42 41.816 451.86 41.816C447.988 41.816 444.932 40.632 442.692 38.264C440.484 35.864 439.38 32.52 439.38 28.232C439.38 25.512 439.876 23.144 440.868 21.128C441.892 19.08 443.332 17.496 445.188 16.376C447.076 15.256 449.3 14.696 451.86 14.696ZM451.86 20.264C450.324 20.264 449.172 20.92 448.404 22.232C447.636 23.512 447.252 25.512 447.252 28.232C447.252 31.016 447.62 33.048 448.356 34.328C449.124 35.608 450.292 36.248 451.86 36.248C453.396 36.248 454.548 35.608 455.316 34.328C456.084 33.016 456.468 31 456.468 28.28C456.468 25.496 456.084 23.464 455.316 22.184C454.58 20.904 453.428 20.264 451.86 20.264Z" fill="#1B1B1C"/>
</svg>
