<svg width="40" height="43" viewBox="0 0 40 43" fill="none" xmlns="http://www.w3.org/2000/svg">
<path d="M20 25.3297C21.9675 25.3297 23.5625 23.6151 23.5625 21.5C23.5625 19.3849 21.9675 17.6703 20 17.6703C18.0325 17.6703 16.4375 19.3849 16.4375 21.5C16.4375 23.6151 18.0325 25.3297 20 25.3297Z" fill="#61DAFB"/>
<path d="M33.5313 15.1844C32.8438 14.9156 32.125 14.6469 31.375 14.4117C31.5625 13.6055 31.7187 12.7992 31.8438 12.0266C32.5 7.59219 31.7813 4.46797 29.7813 3.2586C29.1875 2.88907 28.5313 2.7211 27.7812 2.7211C25.5938 2.7211 22.8125 4.46797 20 7.39063C17.1875 4.46797 14.4062 2.7211 12.2187 2.7211C11.4687 2.7211 10.8125 2.88907 10.2188 3.2586C8.21875 4.50157 7.5 7.62579 8.15625 12.0266C8.28125 12.7992 8.4375 13.6055 8.625 14.4117C7.875 14.6469 7.15625 14.882 6.46875 15.1844C2.5625 16.7969 0.4375 19.0141 0.4375 21.5C0.4375 23.9859 2.59375 26.2031 6.46875 27.8156C7.15625 28.0844 7.875 28.3531 8.625 28.5883C8.4375 29.3945 8.28125 30.2008 8.15625 30.9734C7.5 35.4078 8.21875 38.532 10.2188 39.7414C10.8125 40.1109 11.4687 40.2789 12.2187 40.2789C14.4375 40.2789 17.2187 38.532 20 35.6094C22.8125 38.532 25.5938 40.2789 27.7812 40.2789C28.5313 40.2789 29.1875 40.1109 29.7813 39.7414C31.7813 38.4984 32.5 35.3742 31.8438 30.9734C31.7187 30.2008 31.5625 29.3945 31.375 28.5883C32.125 28.3531 32.8438 28.118 33.5313 27.8156C37.4375 26.2031 39.5625 23.9859 39.5625 21.5C39.5625 19.0141 37.4375 16.7969 33.5313 15.1844ZM28.9062 4.93829C30.1875 5.74454 30.625 8.23047 30.0938 11.7578C30 12.4633 29.8438 13.2023 29.6562 13.975C28.0313 13.5719 26.3125 13.3031 24.5 13.1352C23.4375 11.5227 22.3437 10.0781 21.25 8.76797C23.5625 6.31563 25.9062 4.63594 27.8125 4.63594C28.2187 4.63594 28.5937 4.73672 28.9062 4.93829ZM25.4063 24.8594C24.8438 25.9344 24.1875 27.0094 23.5 28.0844C22.3437 28.1852 21.1875 28.2188 20 28.2188C18.7812 28.2188 17.625 28.1852 16.5 28.0844C15.8125 27.0094 15.1875 25.9344 14.625 24.8594C14.0312 23.7508 13.4687 22.6086 12.9687 21.5C13.4687 20.3914 14.0312 19.2492 14.625 18.1406C15.1875 17.0656 15.8437 15.9906 16.5312 14.9156C17.6875 14.8148 18.8437 14.7813 20.0312 14.7813C21.25 14.7813 22.4063 14.8148 23.5313 14.9156C24.2188 15.9906 24.8438 17.0656 25.4063 18.1406C26 19.2492 26.5625 20.3914 27.0625 21.5C26.5312 22.6086 26 23.7172 25.4063 24.8594ZM28 23.7508C28.4687 24.9266 28.8437 26.0688 29.1875 27.2109C28.125 27.4797 27 27.6813 25.8125 27.8492C26.1875 27.2109 26.5937 26.5391 26.9375 25.8336C27.3125 25.1281 27.6562 24.4227 28 23.7508ZM20 32.8547C19.25 31.9813 18.5312 31.0406 17.8437 30.0664C18.5625 30.1 19.2812 30.1336 20 30.1336C20.7187 30.1336 21.4375 30.1 22.1562 30.0664C21.4687 31.0406 20.75 31.9813 20 32.8547ZM14.1875 27.8156C13 27.6477 11.875 27.4461 10.8125 27.1773C11.1562 26.0688 11.5312 24.893 12 23.7172C12.3438 24.3891 12.6875 25.0945 13.0625 25.7664C13.4375 26.5055 13.8125 27.1438 14.1875 27.8156ZM12 19.2492C11.5312 18.0734 11.1562 16.9313 10.8125 15.7891C11.875 15.5203 13 15.3188 14.1875 15.1508C13.8125 15.7891 13.4062 16.4609 13.0625 17.1664C12.6875 17.8719 12.3438 18.5773 12 19.2492ZM20 10.1453C20.75 11.0188 21.4687 11.9594 22.1562 12.9336C21.4375 12.9 20.7187 12.8664 20 12.8664C19.2812 12.8664 18.5625 12.9 17.8437 12.9336C18.5312 11.9594 19.25 11.0188 20 10.1453ZM26.9375 17.2L25.8125 15.1844C27 15.3523 28.125 15.5539 29.1875 15.8227C28.8437 16.9313 28.4687 18.107 28 19.2828C27.6562 18.5773 27.3125 17.8719 26.9375 17.2ZM9.90625 11.7578C9.375 8.23047 9.8125 5.74454 11.0937 4.93829C11.4062 4.73672 11.7812 4.63594 12.1875 4.63594C14.0625 4.63594 16.4062 6.28204 18.75 8.76797C17.6562 10.0445 16.5625 11.5227 15.5 13.1352C13.6875 13.3031 11.9687 13.6055 10.3437 13.975C10.1562 13.2023 10.0313 12.4633 9.90625 11.7578ZM2.1875 21.5C2.1875 19.9211 3.96875 18.2414 7.09375 16.9984C7.71875 16.7297 8.40625 16.4945 9.09375 16.293C9.59375 17.9727 10.2187 19.7531 10.9687 21.5336C10.2187 23.3141 9.5625 25.0609 9.09375 26.7406C4.78125 25.3969 2.1875 23.3813 2.1875 21.5ZM11.0937 38.0617C9.8125 37.2555 9.375 34.7695 9.90625 31.2422C10 30.5367 10.1562 29.7977 10.3437 29.025C11.9687 29.4281 13.6875 29.6969 15.5 29.8648C16.5625 31.4773 17.6562 32.9219 18.75 34.232C16.4375 36.6844 14.0937 38.3641 12.1875 38.3641C11.7812 38.3641 11.4062 38.2633 11.0937 38.0617ZM30.0938 31.2422C30.625 34.7695 30.1875 37.2555 28.9062 38.0617C28.5937 38.2633 28.2187 38.3641 27.8125 38.3641C25.9375 38.3641 23.5937 36.718 21.25 34.232C22.3437 32.9555 23.4375 31.4773 24.5 29.8648C26.3125 29.6969 28.0313 29.3945 29.6562 29.025C29.8438 29.7977 29.9688 30.5367 30.0938 31.2422ZM32.9063 26.0016C32.2813 26.2703 31.5938 26.5055 30.9062 26.707C30.4062 25.0273 29.7813 23.2469 29.0312 21.4664C29.7813 19.6859 30.4375 17.9391 30.9062 16.2594C35.2188 17.6031 37.8125 19.6188 37.8125 21.5C37.8125 23.0789 36 24.7586 32.9063 26.0016Z" fill="#61DAFB"/>
</svg>
