<svg width="160" height="41" viewBox="0 0 160 41" fill="none" xmlns="http://www.w3.org/2000/svg">
<path d="M3.34935 36.6644L0 0.801392L40 0.87346L36.4584 36.6644L20.151 40.8014L3.34935 36.6644Z" fill="#E34F26"/>
<path d="M20 37.5361V4.06671L36.2963 4.11526L33.3903 34.0601L20 37.5361Z" fill="#EF652A"/>
<path d="M32.129 12.5601L32.5926 8.14835H7.40741L8.79887 21.6742H26.1803L25.4987 27.4432L19.9322 28.7761L14.2839 27.3218L13.9838 23.8798H8.98996L9.67223 30.9094L19.9319 33.4545L30.2733 30.9094L31.6647 17.1898H13.4106L12.8922 12.5601H32.129Z" fill="white"/>
<path d="M63.3494 36.6643L60 0.801392L100 0.873461L96.4584 36.6643L80.151 40.8014L63.3494 36.6643Z" fill="#1B73BA"/>
<path d="M80.151 37.3378V4.21695L96.6232 4.265L93.6858 33.8983L80.151 37.3378Z" fill="#1C88C7"/>
<path d="M92.5326 8.45038H67.1929L67.8794 12.7796H79.9039L68.0716 17.2296L68.7577 21.4147H86.191L85.5594 27.2594L79.6568 28.2698L74.3035 27.0672L73.8916 23.7478H68.9774L69.6361 30.6512L80.1784 33.2248L90.2816 30.4107L91.5719 16.9167H80.8919L92.5323 12.6835L92.5326 8.45038Z" fill="white"/>
<g clip-path="url(#clip0_14_1035)">
<path d="M123.349 36.81L120 1.06677L160 1.1386L156.458 36.81L140.151 40.9331L123.349 36.81Z" fill="#E9CA32"/>
<path d="M140.151 37.4812V4.47086L156.623 4.51874L153.686 34.0529L140.151 37.4812Z" fill="#FFDE25"/>
<path d="M138.387 8.39041H134.032V30.3612L130.645 29.7979V26.8403L126.613 26.2769V32.8963L138.387 35.5723V8.39041ZM141.654 8.39041H153.71L152.903 12.6015H146.256V19.5119H152.903L152.097 33.4597L141.654 35.5723V31.2063L148.71 29.0937L149.117 23.3193L141.654 24.2629V8.39041Z" fill="white"/>
</g>
<defs>
<clipPath id="clip0_14_1035">
<rect width="40" height="40" fill="white" transform="translate(120 0.999969)"/>
</clipPath>
</defs>
</svg>
